<?xml version="1.0" encoding="UTF-8"?>
<svg id="Layer 2" data-name="Layer 2" xmlns="http://www.w3.org/2000/svg" viewBox="0 0 317.5 242.23">
  <defs>
    <style>
      .axe {
        stroke-miterlimit: 15;
        stroke-width: 15px;
      }
    </style>
  </defs>
  <g id="Layer 1" data-name="Layer 1">
    <path class="axe" d="M296.47,135.57c-6.92,8.07-22.38,31.57-65.43,24.33-.74-.12-1.38-.6-1.7-1.28l-34.04-82.96c-.42-.99-8.1,7.55-9.21,8.75L46.12,235.16c-2.44,2.63-6.55,2.78-9.18.34l-20.71-19.23h-.01l-6.44-5.98-2.32-2.15c-.11-.11-.22-.22-.31-.35-2.82-3.82-2.97-9.06.16-12.43l29.87-32.17c1.86-2,6.61-2.87,11.02-4.26.38-.12.72-.34,1-.64l99.1-106.73s.04-.04.06-.06c.32-.33.62-.64.88-.94.1-.1.19-.21.28-.31,2.31-2.68,2.11-4.09,2.97-10.52.06-.47.27-.92.6-1.27l25.93-27.93c.31-.33.71-.58,1.15-.68,7.5-1.78,16.31.36,21.15-1.22,1.41-.47,1.46-.54,2.02-1.08,5.34-5.11,14.93-1.83,20.45,3.69l5.9,5.9c6.27,6.27,1.28,15.76-3.51,22.85-.85,1.25-6.16,7.44-5.32,7.81l88.87,22.56c.76.3,1.31.97,1.45,1.77,5.81,33.81-8.99,56.8-14.7,63.45Z"/>
  </g>
</svg>