<?xml version="1.0" encoding="UTF-8"?>
<svg id="Layer 2" data-name="Layer 2" xmlns="http://www.w3.org/2000/svg" viewBox="0 0 240.1 244.28">
  <defs>
    <style>
      .pickaxe {
        stroke-miterlimit: 10;
        stroke-width: 10px;
      }
    </style>
  </defs>
  <g id="Layer 1" data-name="Layer 1">
    <path class="pickaxe" d="M188.96,6.4l.3,1.14c-68.72,27.74-101.37,53.13-108.12,63.92l151.92,158.1-7.83,7.67L70.78,81.27c-10.52,7.54-34.43,33.12-63.59,104.45l-1.14-.32c-4.63-1.59,7.01-42.2,16.32-60.8,2.14-4.29,13.59-30.05,35.1-53.95l-9.43-9.64c-1.68-1.72-1.65-4.47.07-6.16l6.47-6.33c1.72-1.68,4.47-1.65,6.16.07l9.26,9.46c28.01-25.91,50.17-33.26,53.83-34.92C139.76,15.93,186.5.25,188.96,6.4Z"/>
  </g>
</svg>